PathFileType  4	(X/Y/Z)
DataRate	CameraRate	NumFrames	NumMarkers	Units	OrigDataRate	OrigDataStartFrame	OrigNumFrames
  200.0 	  200.0 	    10 	     40 	mm 	  200.0 	      1 	    515
Frame#	Time	R.Shoulder			R.Clavicle			R.Bicep			R.Elbow			R.Forearm			R.Wrist			L.Shoulder			L.Clavicle			L.Scapula			L.Bicep			L.Elbow			L.Forearm			L.Wrist			R.ASIS			R.PSIS			S2			L.PSIS			L.ASIS			R.TH1			R.TH2			R.TH3			R.Knee			R.SH1			R.SH2			R.SH3			R.SH4			R.Ankle			R.Heel			R.MT5			L.TH1			L.TH2			L.TH3			L.TH4			L.Knee			L.SH1			L.SH2			L.SH3			L.Ankle			L.Heel			L.MT5			
		X1	Y1	Z1	X2	Y2	Z2	X3	Y3	Z3	X4	Y4	Z4	X5	Y5	Z5	X6	Y6	Z6	X7	Y7	Z7	X8	Y8	Z8	X9	Y9	Z9	X10	Y10	Z10	X11	Y11	Z11	X12	Y12	Z12	X13	Y13	Z13	X14	Y14	Z14	X15	Y15	Z15	X16	Y16	Z16	X17	Y17	Z17	X18	Y18	Z18	X19	Y19	Z19	X20	Y20	Z20	X21	Y21	Z21	X22	Y22	Z22	X23	Y23	Z23	X24	Y24	Z24	X25	Y25	Z25	X26	Y26	Z26	X27	Y27	Z27	X28	Y28	Z28	X29	Y29	Z29	X30	Y30	Z30	X31	Y31	Z31	X32	Y32	Z32	X33	Y33	Z33	X34	Y34	Z34	X35	Y35	Z35	X36	Y36	Z36	X37	Y37	Z37	X38	Y38	Z38	X39	Y39	Z39	X40	Y40	Z40	

1	0.00000	-1697.800	1355.952	-80.047	-1635.322	1335.125	-223.842	-1663.135	1130.099	-65.761	-1753.871	1054.380	21.370	-1651.514	966.001	2.981	-1654.322	861.196	62.486	-1652.285	1331.972	-452.235	-1627.798	1330.428	-284.439	-1804.086	1332.515	-367.322	-1611.470	1165.797	-456.772	-1652.051	1023.454	-538.491	-1566.146	952.382	-514.325	-1547.165	839.434	-554.790	-1619.242	906.837	-108.034	-1845.683	945.625	-213.999	-1848.140	942.538	-267.013	-1835.076	959.771	-316.998	-1591.756	906.016	-366.581	-1619.919	706.142	-27.976	-1750.501	649.524	-86.100	-1717.208	581.784	-91.638	-1635.406	483.135	-54.016	-1670.990	365.647	-48.002	-1708.098	303.753	-73.282	-1735.452	436.344	-123.108	-1775.805	372.463	-141.314	-1834.192	169.775	-143.266	-1882.291	169.762	-221.967	-1781.240	57.625	-90.140	-1596.374	643.753	-403.185	-1585.312	567.657	-375.240	-1745.818	620.013	-413.758	-1739.412	544.988	-392.251	-1685.628	469.264	-391.947	-1646.801	369.679	-385.521	-1772.648	310.729	-386.752	-1773.072	310.392	-392.193	-1714.944	72.674	-363.214	-1807.603	43.470	-333.330	-1610.787	21.193	-366.439
2	0.00500	-1691.788	1356.476	-79.568	-1628.784	1335.714	-223.371	-1657.687	1130.532	-65.133	-1748.980	1055.072	21.448	-1647.088	966.107	4.116	-1651.072	861.549	63.866	-1645.496	1333.135	-451.623	-1621.217	1331.080	-284.007	-1797.521	1333.133	-367.090	-1603.269	1167.959	-456.572	-1641.029	1025.118	-538.201	-1553.789	956.349	-512.614	-1532.248	844.472	-552.913	-1612.720	908.066	-107.983	-1839.514	946.435	-213.370	-1842.342	943.520	-265.763	-1828.821	960.101	-316.353	-1585.488	906.325	-366.380	-1611.334	707.767	-28.017	-1742.066	650.208	-84.809	-1708.575	583.036	-90.342	-1625.139	484.183	-54.698	-1658.365	365.507	-48.117	-1693.333	302.587	-72.895	-1724.400	433.437	-123.969	-1762.905	368.725	-141.272	-1814.628	164.595	-141.692	-1862.917	162.819	-219.737	-1758.297	55.138	-87.572	-1593.553	642.907	-403.392	-1583.206	566.703	-375.465	-1743.127	620.965	-412.921	-1737.556	545.914	-391.519	-1684.824	469.558	-391.665	-1646.103	370.066	-385.607	-1770.567	320.528	-386.117	-1772.563	310.954	-391.116	-1714.886	72.777	-363.121	-1807.010	43.624	-333.269	-1610.750	21.241	-366.409
3	0.01000	-1685.696	1356.981	-79.083	-1622.153	1336.287	-222.893	-1652.166	1130.944	-64.498	-1744.026	1055.753	21.537	-1642.602	966.194	5.269	-1647.772	861.889	65.263	-1638.626	1334.288	-451.005	-1614.536	1331.706	-283.550	-1790.848	1333.724	-366.858	-1594.971	1170.129	-456.365	-1629.877	1026.790	-537.910	-1541.304	960.357	-510.903	-1517.163	849.564	-551.005	-1606.111	909.272	-107.923	-1833.264	947.237	-212.726	-1836.459	944.488	-264.511	-1822.496	960.432	-315.701	-1579.165	906.604	-366.174	-1602.653	709.373	-28.065	-1733.541	650.864	-83.508	-1699.855	584.267	-89.045	-1614.780	485.209	-55.396	-1645.584	365.339	-48.231	-1678.371	301.391	-72.491	-1713.206	430.444	-124.824	-1749.815	364.886	-141.226	-1794.756	159.359	-140.060	-1843.229	155.787	-217.474	-1735.014	52.650	-84.960	-1590.719	642.055	-403.588	-1581.068	565.739	-375.680	-1740.393	621.917	-412.077	-1735.665	546.843	-390.783	-1683.988	469.851	-391.376	-1645.380	370.446	-385.682	-1768.490	330.200	-385.495	-1772.033	311.518	-390.053	-1714.825	72.885	-363.027	-1806.428	43.783	-333.204	-1610.710	21.288	-366.382
4	0.01500	-1679.546	1357.454	-78.594	-1615.453	1336.833	-222.410	-1646.592	1131.323	-63.857	-1739.025	1056.410	21.638	-1638.069	966.257	6.438	-1644.433	862.211	66.672	-1631.702	1335.417	-450.384	-1607.779	1332.291	-283.069	-1784.087	1334.275	-366.625	-1586.609	1172.289	-456.150	-1618.645	1028.456	-537.618	-1528.751	964.384	-509.203	-1501.980	854.688	-549.069	-1599.442	910.435	-107.853	-1826.956	948.017	-212.068	-1830.509	945.425	-263.265	-1816.128	960.757	-315.040	-1572.814	906.842	-365.965	-1593.916	710.936	-28.122	-1724.966	651.481	-82.208	-1691.092	585.460	-87.757	-1604.386	486.194	-56.108	-1632.699	365.141	-48.339	-1663.269	300.175	-72.065	-1701.912	427.362	-125.658	-1736.573	360.950	-141.169	-1774.633	154.103	-138.366	-1823.277	148.701	-215.179	-1711.467	50.198	-82.311	-1587.882	641.201	-403.767	-1578.902	564.769	-375.878	-1737.623	622.863	-411.231	-1733.739	547.766	-390.046	-1683.115	470.140	-391.081	-1644.628	370.811	-385.743	-1766.430	339.613	-384.892	-1771.476	312.078	-389.017	-1714.759	73.000	-362.929	-1805.865	43.945	-333.136	-1610.669	21.335	-366.358
5	0.02000	-1673.354	1357.883	-78.104	-1608.708	1337.338	-221.925	-1640.982	1131.656	-63.213	-1733.993	1057.030	21.755	-1633.503	966.286	7.619	-1641.063	862.503	68.087	-1624.750	1336.506	-449.764	-1600.966	1332.821	-282.564	-1777.258	1334.772	-366.392	-1578.214	1174.420	-455.927	-1607.373	1030.106	-537.329	-1516.185	968.411	-507.526	-1486.763	859.820	-547.109	-1592.733	911.535	-107.771	-1820.611	948.764	-211.393	-1824.505	946.315	-262.031	-1809.739	961.072	-314.372	-1566.462	907.028	-365.755	-1585.162	712.433	-28.190	-1716.381	652.045	-80.917	-1682.329	586.597	-86.489	-1594.013	487.122	-56.832	-1619.755	364.909	-48.437	-1648.075	298.946	-71.615	-1690.553	424.188	-126.457	-1723.216	356.923	-141.092	-1754.309	148.863	-136.607	-1803.102	141.600	-212.851	-1687.728	47.821	-79.630	-1585.050	640.348	-403.922	-1576.710	563.799	-376.055	-1734.821	623.796	-410.389	-1731.777	548.677	-389.314	-1682.199	470.422	-390.779	-1643.843	371.157	-385.782	-1764.398	348.638	-384.312	-1770.889	312.632	-388.019	-1714.687	73.122	-362.828	-1805.328	44.111	-333.064	-1610.625	21.381	-366.338
6	0.02500	-1667.137	1358.254	-77.611	-1601.939	1337.792	-221.440	-1635.351	1131.931	-62.567	-1728.941	1057.602	21.887	-1628.912	966.274	8.811	-1637.670	862.759	69.503	-1617.791	1337.541	-449.148	-1594.117	1333.280	-282.032	-1770.378	1335.203	-366.160	-1569.812	1176.503	-455.693	-1596.101	1031.728	-537.041	-1503.657	972.420	-505.880	-1471.572	864.942	-545.128	-1586.004	912.551	-107.676	-1814.247	949.465	-210.700	-1818.460	947.143	-260.814	-1803.351	961.369	-313.696	-1560.131	907.152	-365.546	-1576.427	713.841	-28.271	-1707.822	652.544	-79.644	-1673.607	587.659	-85.252	-1583.712	487.972	-57.566	-1606.794	364.642	-48.519	-1632.836	297.713	-71.136	-1679.162	420.918	-127.203	-1709.774	352.808	-140.984	-1733.826	143.676	-134.778	-1782.739	134.521	-210.488	-1663.854	45.560	-76.926	-1582.226	639.499	-404.047	-1574.494	562.830	-376.204	-1731.990	624.708	-409.554	-1729.778	549.567	-388.590	-1681.234	470.692	-390.472	-1643.019	371.475	-385.798	-1762.404	357.163	-383.762	-1770.265	313.175	-387.073	-1714.610	73.251	-362.721	-1804.824	44.278	-332.989	-1610.580	21.425	-366.322
7	0.03000	-1660.907	1358.555	-77.119	-1595.164	1338.182	-220.960	-1629.711	1132.136	-61.919	-1723.879	1058.115	22.039	-1624.306	966.212	10.012	-1634.259	862.970	70.917	-1610.844	1338.508	-448.540	-1587.246	1333.655	-281.475	-1763.461	1335.558	-365.927	-1561.424	1178.522	-455.448	-1584.863	1033.310	-536.757	-1491.211	976.394	-504.275	-1456.458	870.037	-543.126	-1579.269	913.465	-107.566	-1807.881	950.109	-209.988	-1812.385	947.893	-259.621	-1796.980	961.643	-313.012	-1553.841	907.203	-365.343	-1567.742	715.136	-28.370	-1699.321	652.967	-78.397	-1664.960	588.628	-84.054	-1573.530	488.727	-58.307	-1593.850	364.338	-48.582	-1617.587	296.486	-70.624	-1667.764	417.548	-127.881	-1696.270	348.610	-140.834	-1713.218	138.576	-132.874	-1762.214	127.502	-208.085	-1639.898	43.458	-74.203	-1579.413	638.654	-404.138	-1572.253	561.867	-376.321	-1729.132	625.591	-408.731	-1727.739	550.432	-387.877	-1680.211	470.947	-390.160	-1642.151	371.762	-385.784	-1760.455	365.093	-383.246	-1769.600	313.704	-386.185	-1714.525	73.387	-362.609	-1804.357	44.446	-332.910	-1610.535	21.467	-366.309
8	0.03500	-1654.673	1358.776	-76.628	-1588.399	1338.496	-220.487	-1624.071	1132.259	-61.272	-1718.815	1058.556	22.211	-1619.690	966.092	11.221	-1630.833	863.127	72.325	-1603.924	1339.393	-447.941	-1580.365	1333.935	-280.893	-1756.519	1335.826	-365.694	-1553.068	1180.461	-455.188	-1573.686	1034.844	-536.476	-1478.885	980.319	-502.716	-1441.466	875.088	-541.107	-1572.541	914.260	-107.442	-1801.523	950.683	-209.256	-1806.287	948.554	-258.453	-1790.640	961.886	-312.319	-1547.610	907.173	-365.148	-1559.134	716.300	-28.489	-1690.907	653.303	-77.184	-1656.419	589.486	-82.905	-1563.507	489.370	-59.053	-1580.952	363.998	-48.619	-1602.360	295.276	-70.076	-1656.380	414.076	-128.473	-1682.725	344.336	-140.627	-1692.512	133.600	-130.892	-1741.548	120.577	-205.636	-1615.902	41.554	-71.469	-1576.609	637.816	-404.187	-1569.985	560.911	-376.399	-1726.247	626.441	-407.923	-1725.657	551.264	-387.179	-1679.124	471.184	-389.842	-1641.234	372.011	-385.739	-1758.555	372.348	-382.766	-1768.890	314.216	-385.365	-1714.434	73.530	-362.490	-1803.931	44.613	-332.828	-1610.489	21.506	-366.301
9	0.04000	-1648.443	1358.904	-76.137	-1581.655	1338.726	-220.024	-1618.437	1132.289	-60.624	-1713.754	1058.917	22.406	-1615.068	965.907	12.437	-1627.394	863.224	73.725	-1597.043	1340.185	-447.355	-1573.484	1334.106	-280.284	-1749.564	1335.999	-365.459	-1544.759	1182.304	-454.911	-1562.593	1036.319	-536.198	-1466.711	984.182	-501.209	-1426.635	880.084	-539.071	-1565.830	914.920	-107.304	-1795.183	951.178	-208.503	-1800.174	949.114	-257.314	-1784.342	962.092	-311.615	-1541.452	907.054	-364.965	-1550.627	717.311	-28.630	-1682.602	653.545	-76.012	-1648.010	590.219	-81.815	-1553.680	489.885	-59.800	-1568.123	363.624	-48.627	-1587.180	294.093	-69.487	-1645.026	410.498	-128.962	-1669.154	339.990	-140.350	-1671.732	128.781	-128.827	-1720.755	113.782	-203.135	-1591.902	39.890	-68.730	-1573.812	636.985	-404.190	-1567.687	559.966	-376.435	-1723.334	627.250	-407.133	-1723.526	552.058	-386.499	-1677.962	471.399	-389.518	-1640.265	372.217	-385.659	-1756.708	378.871	-382.325	-1768.128	314.708	-384.616	-1714.334	73.679	-362.363	-1803.551	44.780	-332.741	-1610.443	21.541	-366.296
10	0.04500	-1642.220	1358.931	-75.648	-1574.943	1338.862	-219.572	-1612.813	1132.217	-59.976	-1708.698	1059.187	22.624	-1610.441	965.650	13.659	-1623.942	863.252	75.114	-1590.210	1340.873	-446.784	-1566.610	1334.161	-279.650	-1742.603	1336.071	-365.221	-1536.504	1184.039	-454.616	-1551.603	1037.729	-535.923	-1454.713	987.972	-499.757	-1411.995	885.013	-537.018	-1559.141	915.432	-107.150	-1788.867	951.581	-207.728	-1794.051	949.563	-256.206	-1778.093	962.255	-310.901	-1535.376	906.841	-364.798	-1542.240	718.152	-28.798	-1674.427	653.682	-74.889	-1639.756	590.812	-80.790	-1544.077	490.256	-60.546	-1555.381	363.218	-48.600	-1572.065	292.950	-68.856	-1633.715	406.813	-129.332	-1655.568	335.580	-139.989	-1650.893	124.152	-126.677	-1699.847	107.150	-200.574	-1567.925	38.506	-65.992	-1571.016	636.159	-404.142	-1565.356	559.032	-376.423	-1720.390	628.014	-406.365	-1721.343	552.808	-385.839	-1676.720	471.589	-389.190	-1639.237	372.375	-385.544	-1754.914	384.625	-381.925	-1767.313	315.178	-383.941	-1714.227	73.836	-362.228	-1803.217	44.944	-332.651	-1610.399	21.573	-366.293
